<svg width="133" height="52" viewBox="0 0 133 52" fill="none" xmlns="http://www.w3.org/2000/svg">
<path d="M61.328 35.056V33.846C60.536 34.814 59.4947 35.298 58.204 35.298C56.7667 35.298 55.674 34.8653 54.926 34C54.266 33.1933 53.936 32.108 53.936 30.744V23.044H56.29V30.304C56.29 32.2547 57.0013 33.23 58.424 33.23C59.3773 33.23 60.1033 32.8707 60.602 32.152C60.998 31.5653 61.196 30.766 61.196 29.754V23.044H63.528V32.02C63.528 33.1053 63.572 34.1173 63.66 35.056H61.328ZM71.8758 24.65C70.8785 24.65 70.1378 25.0973 69.6538 25.992C69.2431 26.7253 69.0378 27.7227 69.0378 28.984C69.0378 31.7853 69.9838 33.186 71.8758 33.186C72.7851 33.186 73.5038 32.7313 74.0318 31.822C74.4571 31.0447 74.6698 30.0767 74.6698 28.918C74.6698 27.7593 74.4571 26.7913 74.0318 26.014C73.5185 25.1047 72.7998 24.65 71.8758 24.65ZM76.8918 35.056H74.6698V33.956C73.9365 34.8653 72.9318 35.32 71.6558 35.32C70.0571 35.32 68.8178 34.726 67.9378 33.538C67.1165 32.3793 66.7058 30.8613 66.7058 28.984C66.7058 27.048 67.0871 25.5227 67.8498 24.408C68.6858 23.1613 69.9545 22.538 71.6558 22.538C72.8291 22.538 73.8338 23.022 74.6698 23.99V17.39H76.8918V35.056ZM82.8636 35.034H80.5096V22.714H82.8636V35.034ZM82.8636 20.602H80.5096V17.852H82.8636V20.602ZM95.3984 29.864H87.9844C88.0284 30.92 88.3144 31.7413 88.8424 32.328C89.3851 32.9587 90.1331 33.274 91.0864 33.274C92.4064 33.274 93.5724 32.988 94.5844 32.416V34.638C93.4111 35.078 92.2231 35.298 91.0204 35.298C89.1284 35.298 87.7204 34.6967 86.7964 33.494C85.9898 32.4233 85.5864 30.9273 85.5864 29.006C85.5864 27.158 86.0338 25.6547 86.9284 24.496C87.8231 23.3373 89.0258 22.758 90.5364 22.758C92.2231 22.758 93.4844 23.3593 94.3204 24.562C95.0391 25.5887 95.3984 26.9453 95.3984 28.632V29.864ZM93.0004 27.774C93.0004 26.9527 92.7878 26.2633 92.3624 25.706C91.9224 25.1193 91.3431 24.826 90.6244 24.826C89.8911 24.826 89.2678 25.1267 88.7544 25.728C88.2411 26.3293 87.9844 27.0113 87.9844 27.774H93.0004ZM107.827 35.034H105.539V27.664C105.539 25.772 104.849 24.826 103.471 24.826C102.532 24.826 101.821 25.2 101.337 25.948C100.941 26.5933 100.743 27.422 100.743 28.434V35.034H98.4547V26.08C98.4547 25.508 98.4401 24.9727 98.4107 24.474C98.3961 23.9607 98.3741 23.4767 98.3447 23.022H100.545V24.232C101.263 23.2493 102.327 22.758 103.735 22.758C106.463 22.758 107.827 24.276 107.827 27.312V35.034ZM119.739 34.836C118.917 35.1 117.869 35.232 116.593 35.232C114.789 35.232 113.366 34.6013 112.325 33.34C111.386 32.2107 110.917 30.766 110.917 29.006C110.917 27.202 111.459 25.7133 112.545 24.54C113.645 23.3813 115.031 22.802 116.703 22.802C117.817 22.802 118.829 22.956 119.739 23.264L119.563 25.398C118.697 25.046 117.795 24.87 116.857 24.87C115.713 24.87 114.818 25.2513 114.173 26.014C113.542 26.762 113.227 27.7593 113.227 29.006C113.227 30.1793 113.549 31.1693 114.195 31.976C114.825 32.768 115.661 33.164 116.703 33.164C117.656 33.164 118.609 32.988 119.563 32.636L119.739 34.836ZM131.385 29.864H123.971C124.015 30.92 124.301 31.7413 124.829 32.328C125.371 32.9587 126.119 33.274 127.073 33.274C128.393 33.274 129.559 32.988 130.571 32.416V34.638C129.397 35.078 128.209 35.298 127.007 35.298C125.115 35.298 123.707 34.6967 122.783 33.494C121.976 32.4233 121.573 30.9273 121.573 29.006C121.573 27.158 122.02 25.6547 122.915 24.496C123.809 23.3373 125.012 22.758 126.523 22.758C128.209 22.758 129.471 23.3593 130.307 24.562C131.025 25.5887 131.385 26.9453 131.385 28.632V29.864ZM128.987 27.774C128.987 26.9527 128.774 26.2633 128.349 25.706C127.909 25.1193 127.329 24.826 126.611 24.826C125.877 24.826 125.254 25.1267 124.741 25.728C124.227 26.3293 123.971 27.0113 123.971 27.774H128.987Z" fill="white"/>
<path d="M46.935 40.845C47.715 40.845 48.465 40.425 49.185 39.585L49.86 40.125C49.77 40.245 49.65 40.395 49.5 40.575C49.35 40.755 48.975 40.995 48.375 41.295C47.805 41.595 47.175 41.745 46.485 41.745C43.125 41.745 41.445 40.29 41.445 37.38C41.445 36.48 41.55 35.145 41.76 33.375C40.32 33.825 39.03 34.05 37.89 34.05C35.88 34.05 33.87 33.435 31.86 32.205C30.69 34.215 29.595 35.94 28.575 37.38C27.555 38.79 26.37 40.17 25.02 41.52C22.23 44.25 18.855 45.615 14.895 45.615C10.965 45.615 7.83 44.355 5.49 41.835C3.42 39.525 2.385 36.72 2.385 33.42C2.385 30.09 3.45 27.135 5.58 24.555C7.71 21.975 10.47 20.685 13.86 20.685C17.25 20.685 19.83 21.69 21.6 23.7C22.02 24.24 22.32 24.645 22.5 24.915C24.12 25.605 25.965 26.745 28.035 28.335C29.595 29.595 30.75 30.465 31.5 30.945C31.92 30.165 32.49 29.115 33.21 27.795C33.96 26.475 34.53 25.47 34.92 24.78C35.31 24.09 35.895 23.115 36.675 21.855C37.455 20.595 38.085 19.65 38.565 19.02C39.075 18.36 39.735 17.55 40.545 16.59C41.385 15.6 42.15 14.865 42.84 14.385C44.91 12.915 46.65 12.06 48.06 11.82C48.84 11.7 49.5 11.64 50.04 11.64C50.58 11.64 51.18 11.655 51.84 11.685C52.5 11.685 53.43 11.85 54.63 12.18L54.405 13.035C53.685 12.825 52.92 12.675 52.11 12.585C49.11 24.375 47.385 33.795 46.935 40.845ZM23.94 30.135C23.94 32.355 23.295 34.32 22.005 36.03C20.745 37.74 19.035 38.595 16.875 38.595C15.465 38.595 14.31 38.175 13.41 37.335C12.54 36.495 12.105 35.625 12.105 34.725C12.105 33.825 12.24 33.09 12.51 32.52C12.78 31.92 13.08 31.47 13.41 31.17C13.77 30.87 14.16 30.63 14.58 30.45C15.15 30.15 15.6 30 15.93 30L16.02 30.9C15.27 30.9 14.58 31.26 13.95 31.98C13.32 32.7 13.005 33.51 13.005 34.41C13.005 35.31 13.35 36.09 14.04 36.75C14.76 37.38 15.705 37.695 16.875 37.695C18.795 37.695 20.31 36.945 21.42 35.445C22.53 33.945 23.085 32.28 23.085 30.45C23.085 28.62 22.71 27.03 21.96 25.68C20.31 25.05 18.675 24.735 17.055 24.735C13.935 24.735 11.73 26.19 10.44 29.1L9.585 28.83C9.915 28.08 10.44 27.27 11.16 26.4C12.57 24.69 14.535 23.835 17.055 23.835C18.405 23.835 19.74 24.03 21.06 24.42L20.97 24.285C19.32 22.485 16.935 21.585 13.815 21.585C10.725 21.585 8.19 22.785 6.21 25.185C4.26 27.585 3.285 30.345 3.285 33.465C3.285 36.555 4.245 39.135 6.165 41.205C8.325 43.545 11.34 44.715 15.21 44.715C18.75 44.715 21.84 43.38 24.48 40.71C25.8 39.42 26.94 38.085 27.9 36.705C28.89 35.325 29.955 33.66 31.095 31.71C30.075 31.05 28.83 30.15 27.36 29.01C25.92 27.84 24.525 26.91 23.175 26.22C23.685 27.48 23.94 28.785 23.94 30.135ZM32.31 31.44C34.23 32.58 35.985 33.15 37.575 33.15C39.195 33.15 40.635 32.895 41.895 32.385C42.615 27.315 43.965 21.015 45.945 13.485C43.545 14.625 41.34 16.65 39.33 19.56C37.86 21.66 36.09 24.585 34.02 28.335L32.31 31.44Z" fill="url(#paint0_linear_103_1966)"/>
<defs>
<linearGradient id="paint0_linear_103_1966" x1="-9.17647" y1="7.7037" x2="27.2092" y2="59.7138" gradientUnits="userSpaceOnUse">
<stop stop-color="#D509B4"/>
<stop offset="1" stop-color="#2EC4A9"/>
</linearGradient>
</defs>
</svg>
