<svg width="22" height="22" viewBox="0 0 22 22" fill="none" xmlns="http://www.w3.org/2000/svg">
<path d="M9.16669 4.5835H3.66669" stroke="white" stroke-width="1.5" stroke-linecap="round"/>
<path d="M12.8334 4.5835H18.3334" stroke="white" stroke-width="1.5" stroke-linecap="round"/>
<path d="M14.6667 11H3.66669" stroke="white" stroke-width="1.5" stroke-linecap="round"/>
<path d="M7.33337 17.4165H18.3334" stroke="white" stroke-width="1.5" stroke-linecap="round"/>
<path d="M7.33335 17.4168C7.33335 16.4043 6.51254 15.5835 5.50002 15.5835C4.4875 15.5835 3.66669 16.4043 3.66669 17.4168C3.66669 18.4294 4.4875 19.2502 5.50002 19.2502C6.51254 19.2502 7.33335 18.4294 7.33335 17.4168Z" stroke="white" stroke-width="1.5" stroke-linecap="round"/>
<path d="M18.3334 10.9998C18.3334 9.98729 17.5126 9.1665 16.5 9.1665C15.4875 9.1665 14.6667 9.98729 14.6667 10.9998C14.6667 12.0124 15.4875 12.8332 16.5 12.8332C17.5126 12.8332 18.3334 12.0124 18.3334 10.9998Z" stroke="white" stroke-width="1.5" stroke-linecap="round"/>
<path d="M12.8334 4.58333C12.8334 3.57081 12.0126 2.75 11 2.75C9.98747 2.75 9.16669 3.57081 9.16669 4.58333C9.16669 5.59586 9.98747 6.41667 11 6.41667C12.0126 6.41667 12.8334 5.59586 12.8334 4.58333Z" stroke="white" stroke-width="1.5" stroke-linecap="round"/>
</svg>
